<mxfile host="app.diagrams.net" modified="2023-09-30T03:10:07.951Z" agent="Mozilla/5.0 (Windows NT 10.0; Win64; x64) AppleWebKit/537.36 (KHTML, like Gecko) Chrome/116.0.0.0 Safari/537.36" etag="qzsZLgxmDqG70zteCdSY" version="22.0.0" type="github">
  <diagram name="Page-1" id="03018318-947c-dd8e-b7a3-06fadd420f32">
    <mxGraphModel dx="794" dy="456" grid="1" gridSize="10" guides="1" tooltips="1" connect="1" arrows="1" fold="1" page="1" pageScale="1" pageWidth="1100" pageHeight="850" background="none" math="0" shadow="0">
      <root>
        <mxCell id="0" />
        <mxCell id="1" parent="0" />
        <mxCell id="wTCAX4trCKSRWwQXUOc--4" value="&amp;nbsp;" style="strokeWidth=1;shadow=0;dashed=0;align=center;html=1;shape=mxgraph.mockup.containers.browserWindow;rSize=0;strokeColor=#666666;strokeColor2=#008cff;strokeColor3=#c4c4c4;mainText=,;recursiveResize=0;fillColor=#f5f5f5;fontColor=#333333;" parent="1" vertex="1">
          <mxGeometry x="90" y="190" width="660" height="520" as="geometry" />
        </mxCell>
        <mxCell id="wTCAX4trCKSRWwQXUOc--5" value="Page 1" style="strokeWidth=1;shadow=0;dashed=0;align=center;html=1;shape=mxgraph.mockup.containers.anchor;fontSize=17;fontColor=#666666;align=left;whiteSpace=wrap;" parent="wTCAX4trCKSRWwQXUOc--4" vertex="1">
          <mxGeometry x="60" y="12" width="110" height="26" as="geometry" />
        </mxCell>
        <mxCell id="wTCAX4trCKSRWwQXUOc--6" value="https://www.sdsueats.com/store/" style="strokeWidth=1;shadow=0;dashed=0;align=center;html=1;shape=mxgraph.mockup.containers.anchor;rSize=0;fontSize=17;fontColor=#666666;align=left;" parent="wTCAX4trCKSRWwQXUOc--4" vertex="1">
          <mxGeometry x="130" y="60" width="250" height="26" as="geometry" />
        </mxCell>
        <mxCell id="wTCAX4trCKSRWwQXUOc--7" value="Restaurant Name Here" style="rounded=1;whiteSpace=wrap;html=1;" parent="wTCAX4trCKSRWwQXUOc--4" vertex="1">
          <mxGeometry x="30" y="160" width="620" height="70" as="geometry" />
        </mxCell>
        <mxCell id="wTCAX4trCKSRWwQXUOc--11" value="Logo" style="strokeWidth=1;shadow=0;dashed=0;align=center;html=1;shape=mxgraph.mockup.buttons.button;strokeColor=#666666;fontColor=#ffffff;mainText=;buttonStyle=round;fontSize=17;fontStyle=1;fillColor=#008cff;whiteSpace=wrap;" parent="wTCAX4trCKSRWwQXUOc--4" vertex="1">
          <mxGeometry x="30" y="195" width="40" height="35" as="geometry" />
        </mxCell>
        <mxCell id="wTCAX4trCKSRWwQXUOc--12" value="Most liked items&amp;nbsp;" style="strokeWidth=1;shadow=0;dashed=0;align=center;html=1;shape=mxgraph.mockup.text.textBox;fontColor=#666666;align=left;fontSize=17;spacingLeft=4;spacingTop=-3;whiteSpace=wrap;strokeColor=#666666;mainText=" parent="wTCAX4trCKSRWwQXUOc--4" vertex="1">
          <mxGeometry x="40" y="240" width="150" height="20" as="geometry" />
        </mxCell>
        <mxCell id="wTCAX4trCKSRWwQXUOc--13" value="Item 1" style="rounded=0;whiteSpace=wrap;html=1;" parent="wTCAX4trCKSRWwQXUOc--4" vertex="1">
          <mxGeometry x="40" y="270" width="90" height="60" as="geometry" />
        </mxCell>
        <mxCell id="wTCAX4trCKSRWwQXUOc--15" value="Item 3" style="rounded=0;whiteSpace=wrap;html=1;" parent="wTCAX4trCKSRWwQXUOc--4" vertex="1">
          <mxGeometry x="285" y="270" width="90" height="60" as="geometry" />
        </mxCell>
        <mxCell id="wTCAX4trCKSRWwQXUOc--22" value="Item 4" style="rounded=0;whiteSpace=wrap;html=1;" parent="wTCAX4trCKSRWwQXUOc--4" vertex="1">
          <mxGeometry x="420" y="270" width="90" height="60" as="geometry" />
        </mxCell>
        <mxCell id="wTCAX4trCKSRWwQXUOc--23" value="Item 1" style="rounded=0;whiteSpace=wrap;html=1;" parent="wTCAX4trCKSRWwQXUOc--4" vertex="1">
          <mxGeometry x="160" y="270" width="90" height="60" as="geometry" />
        </mxCell>
        <mxCell id="wTCAX4trCKSRWwQXUOc--24" value="&lt;br&gt;&lt;br&gt;&lt;br&gt;" style="strokeWidth=1;shadow=0;dashed=0;align=center;html=1;shape=mxgraph.mockup.forms.rrect;rSize=0;strokeColor=#999999;fillColor=#ffffff;" parent="wTCAX4trCKSRWwQXUOc--4" vertex="1">
          <mxGeometry x="40" y="350" width="150" height="160" as="geometry" />
        </mxCell>
        <mxCell id="wTCAX4trCKSRWwQXUOc--25" value="Full Menu" style="strokeWidth=1;shadow=0;dashed=0;align=center;html=1;shape=mxgraph.mockup.forms.rrect;rSize=0;strokeColor=#999999;fontColor=#008cff;fontSize=17;fillColor=#ffffff;resizeWidth=1;whiteSpace=wrap;" parent="wTCAX4trCKSRWwQXUOc--24" vertex="1">
          <mxGeometry width="150" height="30" relative="1" as="geometry">
            <mxPoint y="-1" as="offset" />
          </mxGeometry>
        </mxCell>
        <mxCell id="wTCAX4trCKSRWwQXUOc--26" value="Item 1" style="strokeWidth=1;shadow=0;dashed=0;align=center;html=1;shape=mxgraph.mockup.forms.anchor;fontSize=17;fontColor=#666666;align=left;spacingLeft=5;resizeWidth=1;whiteSpace=wrap;" parent="wTCAX4trCKSRWwQXUOc--24" vertex="1">
          <mxGeometry width="150" height="20" relative="1" as="geometry">
            <mxPoint y="30" as="offset" />
          </mxGeometry>
        </mxCell>
        <mxCell id="wTCAX4trCKSRWwQXUOc--27" value="Item 2" style="strokeWidth=1;shadow=0;dashed=0;align=center;html=1;shape=mxgraph.mockup.forms.anchor;fontSize=17;fontColor=#666666;align=left;spacingLeft=5;resizeWidth=1;whiteSpace=wrap;" parent="wTCAX4trCKSRWwQXUOc--24" vertex="1">
          <mxGeometry width="150" height="20" relative="1" as="geometry">
            <mxPoint y="50" as="offset" />
          </mxGeometry>
        </mxCell>
        <mxCell id="wTCAX4trCKSRWwQXUOc--28" value="Item 3" style="strokeWidth=1;shadow=0;dashed=0;align=center;html=1;shape=mxgraph.mockup.forms.rrect;rSize=0;fontSize=17;fontColor=#666666;align=left;spacingLeft=5;fillColor=#ddeeff;strokeColor=none;resizeWidth=1;whiteSpace=wrap;" parent="wTCAX4trCKSRWwQXUOc--24" vertex="1">
          <mxGeometry width="150" height="20" relative="1" as="geometry">
            <mxPoint y="70" as="offset" />
          </mxGeometry>
        </mxCell>
        <mxCell id="wTCAX4trCKSRWwQXUOc--29" value="Item 4" style="strokeWidth=1;shadow=0;dashed=0;align=center;html=1;shape=mxgraph.mockup.forms.anchor;fontSize=17;fontColor=#666666;align=left;spacingLeft=5;resizeWidth=1;whiteSpace=wrap;" parent="wTCAX4trCKSRWwQXUOc--24" vertex="1">
          <mxGeometry width="150" height="20" relative="1" as="geometry">
            <mxPoint y="90" as="offset" />
          </mxGeometry>
        </mxCell>
        <mxCell id="wTCAX4trCKSRWwQXUOc--35" value="SDSU Eats Logo" style="rounded=1;whiteSpace=wrap;html=1;" parent="wTCAX4trCKSRWwQXUOc--4" vertex="1">
          <mxGeometry x="35" y="120" width="100" height="30" as="geometry" />
        </mxCell>
        <mxCell id="wTCAX4trCKSRWwQXUOc--42" value="" style="html=1;verticalLabelPosition=bottom;align=center;labelBackgroundColor=#ffffff;verticalAlign=top;strokeWidth=2;strokeColor=#0080F0;shadow=0;dashed=0;shape=mxgraph.ios7.icons.shopping_cart;" parent="wTCAX4trCKSRWwQXUOc--4" vertex="1">
          <mxGeometry x="520" y="130" width="20" height="20" as="geometry" />
        </mxCell>
        <mxCell id="wTCAX4trCKSRWwQXUOc--50" value="cart" style="strokeWidth=1;shadow=0;dashed=0;align=center;html=1;shape=mxgraph.mockup.buttons.button;strokeColor=#666666;fontColor=#ffffff;mainText=;buttonStyle=round;fontSize=17;fontStyle=1;fillColor=#008cff;whiteSpace=wrap;" parent="wTCAX4trCKSRWwQXUOc--4" vertex="1">
          <mxGeometry x="540" y="130" width="45" height="20" as="geometry" />
        </mxCell>
        <mxCell id="wTCAX4trCKSRWwQXUOc--51" value="Sign up" style="rounded=1;whiteSpace=wrap;html=1;" parent="wTCAX4trCKSRWwQXUOc--4" vertex="1">
          <mxGeometry x="590" y="125" width="55" height="30" as="geometry" />
        </mxCell>
      </root>
    </mxGraphModel>
  </diagram>
</mxfile>
